<svg fill="#000000" xmlns="http://www.w3.org/2000/svg"  viewBox="0 0 512 512" width="256px" height="256px"><path d="M395.31 287.957l-44.524-96.193c-.526-38.78-18.136-75.546-49.721-103.7A172.582 172.582 0 00187.7 44.72c-68.434 0-133.291 41.8-154.4 99.457-15.281 31.967-6.391 93.891.76 143.689 1.83 12.75 3.56 24.8 4.714 35.159l.753 133.73a7.881 7.881 0 007.9 7.815L247.461 467h.1a8.4 8.4 0 005.839-2.167 7.91 7.91 0 002.6-5.553V405.028l48.758 1.507a43.567 43.567 0 0044.841-43.2l.606-63.122 38.047-.894a7.994 7.994 0 007.058-11.358zM342.067 284.4a8 8 0 00-7.811 7.917l-.712 70.857a27.661 27.661 0 01-28.512 27.372l-114-3.506a8.017 8.017 0 00-8.242 7.75 8.183 8.183 0 007.968 8.242L240 404.536v46.64L55.7 448.812l-.821-126.3a8.009 8.009 0 00-.1-.832c-1.181-10.71-2.979-23.039-4.853-36.092C43.052 237.76 34.491 178.23 47.877 150.8a7.888 7.888 0 00.325-.784c9.008-24.864 28.018-47.557 53.536-63.9A161.457 161.457 0 01187.7 60.72 156.38 156.38 0 01290.419 100c28.619 25.514 44.379 58.736 44.379 93.548a8.011 8.011 0 00.74 3.361l40.127 86.694zM396.213 318.18a8 8 0 00-.023 11.314 50.971 50.971 0 010 71.794 8 8 0 1011.336 11.291 67 67 0 000-94.376A8 8 0 00396.213 318.18zM445.041 291.1a8 8 0 000 11.314c34.783 34.783 34.764 91.846-.044 127.2a8 8 0 1011.4 11.224c40.949-41.6 40.929-108.769-.044-149.742A8 8 0 00445.041 291.1z"/></svg>